<mxfile host="Electron" modified="2024-04-08T06:32:08.050Z" agent="Mozilla/5.0 (Windows NT 10.0; Win64; x64) AppleWebKit/537.36 (KHTML, like Gecko) draw.io/24.1.0 Chrome/120.0.6099.109 Electron/28.1.0 Safari/537.36" etag="_7MnEYSaAzagdFOHoEb2" version="24.1.0" type="device">
  <diagram name="Page-1" id="Jwc2eyP3yPsm2ZI0Tkpr">
    <mxGraphModel dx="869" dy="664" grid="1" gridSize="10" guides="1" tooltips="1" connect="1" arrows="1" fold="1" page="1" pageScale="1" pageWidth="827" pageHeight="1169" math="0" shadow="0">
      <root>
        <mxCell id="0" />
        <mxCell id="1" parent="0" />
        <mxCell id="DBXaLhLHmogYPf7BZQnP-1" value="" style="ellipse;html=1;shape=startState;fillColor=#000000;strokeColor=#ff0000;" vertex="1" parent="1">
          <mxGeometry x="384" y="20" width="30" height="30" as="geometry" />
        </mxCell>
        <mxCell id="DBXaLhLHmogYPf7BZQnP-2" value="" style="edgeStyle=orthogonalEdgeStyle;html=1;verticalAlign=bottom;endArrow=open;endSize=8;strokeColor=#ff0000;rounded=0;entryX=0.5;entryY=0;entryDx=0;entryDy=0;" edge="1" source="DBXaLhLHmogYPf7BZQnP-1" parent="1" target="DBXaLhLHmogYPf7BZQnP-3">
          <mxGeometry relative="1" as="geometry">
            <mxPoint x="399" y="110" as="targetPoint" />
          </mxGeometry>
        </mxCell>
        <mxCell id="DBXaLhLHmogYPf7BZQnP-6" value="" style="edgeStyle=orthogonalEdgeStyle;rounded=0;orthogonalLoop=1;jettySize=auto;html=1;" edge="1" parent="1" source="DBXaLhLHmogYPf7BZQnP-3" target="DBXaLhLHmogYPf7BZQnP-5">
          <mxGeometry relative="1" as="geometry" />
        </mxCell>
        <mxCell id="DBXaLhLHmogYPf7BZQnP-8" value="" style="edgeStyle=orthogonalEdgeStyle;rounded=0;orthogonalLoop=1;jettySize=auto;html=1;" edge="1" parent="1" source="DBXaLhLHmogYPf7BZQnP-3" target="DBXaLhLHmogYPf7BZQnP-7">
          <mxGeometry relative="1" as="geometry" />
        </mxCell>
        <mxCell id="DBXaLhLHmogYPf7BZQnP-10" value="" style="edgeStyle=orthogonalEdgeStyle;rounded=0;orthogonalLoop=1;jettySize=auto;html=1;" edge="1" parent="1" source="DBXaLhLHmogYPf7BZQnP-3" target="DBXaLhLHmogYPf7BZQnP-9">
          <mxGeometry relative="1" as="geometry" />
        </mxCell>
        <mxCell id="DBXaLhLHmogYPf7BZQnP-12" value="" style="edgeStyle=orthogonalEdgeStyle;rounded=0;orthogonalLoop=1;jettySize=auto;html=1;" edge="1" parent="1" source="DBXaLhLHmogYPf7BZQnP-3" target="DBXaLhLHmogYPf7BZQnP-11">
          <mxGeometry relative="1" as="geometry" />
        </mxCell>
        <mxCell id="DBXaLhLHmogYPf7BZQnP-14" value="" style="edgeStyle=orthogonalEdgeStyle;rounded=0;orthogonalLoop=1;jettySize=auto;html=1;exitX=0.75;exitY=0;exitDx=0;exitDy=0;" edge="1" parent="1" source="DBXaLhLHmogYPf7BZQnP-3" target="DBXaLhLHmogYPf7BZQnP-13">
          <mxGeometry relative="1" as="geometry" />
        </mxCell>
        <mxCell id="DBXaLhLHmogYPf7BZQnP-3" value="Hauptmenü" style="html=1;whiteSpace=wrap;" vertex="1" parent="1">
          <mxGeometry x="344" y="70" width="110" height="50" as="geometry" />
        </mxCell>
        <mxCell id="DBXaLhLHmogYPf7BZQnP-18" value="" style="edgeStyle=orthogonalEdgeStyle;rounded=0;orthogonalLoop=1;jettySize=auto;html=1;" edge="1" parent="1" source="DBXaLhLHmogYPf7BZQnP-5" target="DBXaLhLHmogYPf7BZQnP-17">
          <mxGeometry relative="1" as="geometry" />
        </mxCell>
        <mxCell id="DBXaLhLHmogYPf7BZQnP-5" value="Aufgabe hinzufügen" style="html=1;whiteSpace=wrap;" vertex="1" parent="1">
          <mxGeometry x="40" y="160" width="110" height="50" as="geometry" />
        </mxCell>
        <mxCell id="DBXaLhLHmogYPf7BZQnP-23" value="" style="edgeStyle=orthogonalEdgeStyle;rounded=0;orthogonalLoop=1;jettySize=auto;html=1;" edge="1" parent="1" source="DBXaLhLHmogYPf7BZQnP-7" target="DBXaLhLHmogYPf7BZQnP-22">
          <mxGeometry relative="1" as="geometry" />
        </mxCell>
        <mxCell id="DBXaLhLHmogYPf7BZQnP-7" value="Aufgabenliste anzeigen" style="html=1;whiteSpace=wrap;" vertex="1" parent="1">
          <mxGeometry x="170" y="160" width="110" height="50" as="geometry" />
        </mxCell>
        <mxCell id="DBXaLhLHmogYPf7BZQnP-25" value="" style="edgeStyle=orthogonalEdgeStyle;rounded=0;orthogonalLoop=1;jettySize=auto;html=1;" edge="1" parent="1" source="DBXaLhLHmogYPf7BZQnP-9" target="DBXaLhLHmogYPf7BZQnP-24">
          <mxGeometry relative="1" as="geometry" />
        </mxCell>
        <mxCell id="DBXaLhLHmogYPf7BZQnP-9" value="Aufgabe bearbeiten" style="html=1;whiteSpace=wrap;" vertex="1" parent="1">
          <mxGeometry x="304" y="160" width="110" height="50" as="geometry" />
        </mxCell>
        <mxCell id="DBXaLhLHmogYPf7BZQnP-33" value="" style="edgeStyle=orthogonalEdgeStyle;rounded=0;orthogonalLoop=1;jettySize=auto;html=1;" edge="1" parent="1" source="DBXaLhLHmogYPf7BZQnP-11" target="DBXaLhLHmogYPf7BZQnP-32">
          <mxGeometry relative="1" as="geometry" />
        </mxCell>
        <mxCell id="DBXaLhLHmogYPf7BZQnP-11" value="Aufgabe löschen" style="html=1;whiteSpace=wrap;" vertex="1" parent="1">
          <mxGeometry x="440" y="160" width="110" height="50" as="geometry" />
        </mxCell>
        <mxCell id="DBXaLhLHmogYPf7BZQnP-13" value="Programm beenden" style="html=1;whiteSpace=wrap;" vertex="1" parent="1">
          <mxGeometry x="680" y="160" width="110" height="50" as="geometry" />
        </mxCell>
        <mxCell id="DBXaLhLHmogYPf7BZQnP-15" value="" style="ellipse;html=1;shape=endState;fillColor=#000000;strokeColor=#ff0000;" vertex="1" parent="1">
          <mxGeometry x="720" y="270" width="30" height="30" as="geometry" />
        </mxCell>
        <mxCell id="DBXaLhLHmogYPf7BZQnP-16" value="" style="endArrow=classicThin;endFill=1;endSize=12;html=1;rounded=0;exitX=0.5;exitY=1;exitDx=0;exitDy=0;entryX=0.5;entryY=0;entryDx=0;entryDy=0;" edge="1" parent="1" source="DBXaLhLHmogYPf7BZQnP-13" target="DBXaLhLHmogYPf7BZQnP-15">
          <mxGeometry width="160" relative="1" as="geometry">
            <mxPoint x="330" y="240" as="sourcePoint" />
            <mxPoint x="800" y="45" as="targetPoint" />
          </mxGeometry>
        </mxCell>
        <mxCell id="DBXaLhLHmogYPf7BZQnP-21" value="" style="edgeStyle=orthogonalEdgeStyle;rounded=0;orthogonalLoop=1;jettySize=auto;html=1;" edge="1" parent="1" source="DBXaLhLHmogYPf7BZQnP-17" target="DBXaLhLHmogYPf7BZQnP-20">
          <mxGeometry relative="1" as="geometry" />
        </mxCell>
        <mxCell id="DBXaLhLHmogYPf7BZQnP-17" value="Beschreibung eingeben" style="html=1;whiteSpace=wrap;" vertex="1" parent="1">
          <mxGeometry x="40" y="290" width="110" height="50" as="geometry" />
        </mxCell>
        <mxCell id="DBXaLhLHmogYPf7BZQnP-20" value="Aufgabe in Liste hinzufügen" style="html=1;whiteSpace=wrap;" vertex="1" parent="1">
          <mxGeometry x="40" y="420" width="110" height="50" as="geometry" />
        </mxCell>
        <mxCell id="DBXaLhLHmogYPf7BZQnP-22" value="Aufgabenliste am Bildschirm ausgeben" style="html=1;whiteSpace=wrap;" vertex="1" parent="1">
          <mxGeometry x="170" y="290" width="110" height="50" as="geometry" />
        </mxCell>
        <mxCell id="DBXaLhLHmogYPf7BZQnP-27" value="" style="edgeStyle=orthogonalEdgeStyle;rounded=0;orthogonalLoop=1;jettySize=auto;html=1;" edge="1" parent="1" source="DBXaLhLHmogYPf7BZQnP-24" target="DBXaLhLHmogYPf7BZQnP-26">
          <mxGeometry relative="1" as="geometry" />
        </mxCell>
        <mxCell id="DBXaLhLHmogYPf7BZQnP-24" value="Aufgabenliste am Bildschirm ausgeben" style="html=1;whiteSpace=wrap;" vertex="1" parent="1">
          <mxGeometry x="304" y="290" width="110" height="50" as="geometry" />
        </mxCell>
        <mxCell id="DBXaLhLHmogYPf7BZQnP-29" value="" style="edgeStyle=orthogonalEdgeStyle;rounded=0;orthogonalLoop=1;jettySize=auto;html=1;" edge="1" parent="1" source="DBXaLhLHmogYPf7BZQnP-26" target="DBXaLhLHmogYPf7BZQnP-28">
          <mxGeometry relative="1" as="geometry" />
        </mxCell>
        <mxCell id="DBXaLhLHmogYPf7BZQnP-26" value="Auswahl einer Aufgabe durch Aufgaben-ID" style="html=1;whiteSpace=wrap;" vertex="1" parent="1">
          <mxGeometry x="304" y="420" width="110" height="50" as="geometry" />
        </mxCell>
        <mxCell id="DBXaLhLHmogYPf7BZQnP-31" value="" style="edgeStyle=orthogonalEdgeStyle;rounded=0;orthogonalLoop=1;jettySize=auto;html=1;" edge="1" parent="1" source="DBXaLhLHmogYPf7BZQnP-28" target="DBXaLhLHmogYPf7BZQnP-30">
          <mxGeometry relative="1" as="geometry" />
        </mxCell>
        <mxCell id="DBXaLhLHmogYPf7BZQnP-28" value="Neue Beschreibung der Aufgabe eingeben" style="html=1;whiteSpace=wrap;" vertex="1" parent="1">
          <mxGeometry x="304" y="550" width="110" height="50" as="geometry" />
        </mxCell>
        <mxCell id="DBXaLhLHmogYPf7BZQnP-40" value="" style="edgeStyle=orthogonalEdgeStyle;rounded=0;orthogonalLoop=1;jettySize=auto;html=1;" edge="1" parent="1" source="DBXaLhLHmogYPf7BZQnP-30" target="DBXaLhLHmogYPf7BZQnP-39">
          <mxGeometry relative="1" as="geometry" />
        </mxCell>
        <mxCell id="DBXaLhLHmogYPf7BZQnP-30" value="Liste aktualisieren" style="html=1;whiteSpace=wrap;" vertex="1" parent="1">
          <mxGeometry x="304" y="680" width="110" height="50" as="geometry" />
        </mxCell>
        <mxCell id="DBXaLhLHmogYPf7BZQnP-35" value="" style="edgeStyle=orthogonalEdgeStyle;rounded=0;orthogonalLoop=1;jettySize=auto;html=1;" edge="1" parent="1" source="DBXaLhLHmogYPf7BZQnP-32" target="DBXaLhLHmogYPf7BZQnP-34">
          <mxGeometry relative="1" as="geometry" />
        </mxCell>
        <mxCell id="DBXaLhLHmogYPf7BZQnP-32" value="Aufgabenliste am Bildschirm ausgeben" style="html=1;whiteSpace=wrap;" vertex="1" parent="1">
          <mxGeometry x="440" y="290" width="110" height="50" as="geometry" />
        </mxCell>
        <mxCell id="DBXaLhLHmogYPf7BZQnP-37" value="" style="edgeStyle=orthogonalEdgeStyle;rounded=0;orthogonalLoop=1;jettySize=auto;html=1;" edge="1" parent="1" source="DBXaLhLHmogYPf7BZQnP-34" target="DBXaLhLHmogYPf7BZQnP-36">
          <mxGeometry relative="1" as="geometry" />
        </mxCell>
        <mxCell id="DBXaLhLHmogYPf7BZQnP-34" value="Auswahl einer Aufgabe durch Aufgaben-ID" style="html=1;whiteSpace=wrap;" vertex="1" parent="1">
          <mxGeometry x="440" y="420" width="110" height="50" as="geometry" />
        </mxCell>
        <mxCell id="DBXaLhLHmogYPf7BZQnP-36" value="Löschen der Ausfgabe in der Liste" style="html=1;whiteSpace=wrap;" vertex="1" parent="1">
          <mxGeometry x="440" y="550" width="110" height="50" as="geometry" />
        </mxCell>
        <mxCell id="DBXaLhLHmogYPf7BZQnP-39" value="Rückkehr ins Hauptmenü" style="html=1;whiteSpace=wrap;" vertex="1" parent="1">
          <mxGeometry x="304" y="810" width="110" height="50" as="geometry" />
        </mxCell>
        <mxCell id="DBXaLhLHmogYPf7BZQnP-41" value="" style="endArrow=classicThin;endFill=1;endSize=12;html=1;rounded=0;exitX=0.5;exitY=1;exitDx=0;exitDy=0;entryX=1;entryY=0.5;entryDx=0;entryDy=0;" edge="1" parent="1" source="DBXaLhLHmogYPf7BZQnP-39" target="DBXaLhLHmogYPf7BZQnP-3">
          <mxGeometry width="160" relative="1" as="geometry">
            <mxPoint x="330" y="640" as="sourcePoint" />
            <mxPoint x="680" y="430" as="targetPoint" />
            <Array as="points">
              <mxPoint x="359" y="920" />
              <mxPoint x="640" y="920" />
              <mxPoint x="640" y="95" />
            </Array>
          </mxGeometry>
        </mxCell>
        <mxCell id="DBXaLhLHmogYPf7BZQnP-42" value="" style="endArrow=classicThin;endFill=1;endSize=12;html=1;rounded=0;exitX=0.5;exitY=1;exitDx=0;exitDy=0;entryX=0;entryY=0.5;entryDx=0;entryDy=0;startSize=6;" edge="1" parent="1" source="DBXaLhLHmogYPf7BZQnP-20" target="DBXaLhLHmogYPf7BZQnP-39">
          <mxGeometry width="160" relative="1" as="geometry">
            <mxPoint x="330" y="540" as="sourcePoint" />
            <mxPoint x="490" y="540" as="targetPoint" />
            <Array as="points">
              <mxPoint x="95" y="835" />
            </Array>
          </mxGeometry>
        </mxCell>
        <mxCell id="DBXaLhLHmogYPf7BZQnP-43" value="" style="endArrow=classicThin;endFill=1;endSize=12;html=1;rounded=0;entryX=1;entryY=0.5;entryDx=0;entryDy=0;exitX=0.5;exitY=1;exitDx=0;exitDy=0;" edge="1" parent="1" source="DBXaLhLHmogYPf7BZQnP-36" target="DBXaLhLHmogYPf7BZQnP-39">
          <mxGeometry width="160" relative="1" as="geometry">
            <mxPoint x="330" y="540" as="sourcePoint" />
            <mxPoint x="490" y="540" as="targetPoint" />
            <Array as="points">
              <mxPoint x="495" y="835" />
            </Array>
          </mxGeometry>
        </mxCell>
      </root>
    </mxGraphModel>
  </diagram>
</mxfile>
